<?xml version="1.0" encoding="UTF-8" standalone="no"?>
<svg
   xmlns:dc="http://purl.org/dc/elements/1.1/"
   xmlns:cc="http://creativecommons.org/ns#"
   xmlns:rdf="http://www.w3.org/1999/02/22-rdf-syntax-ns#"
   xmlns:svg="http://www.w3.org/2000/svg"
   xmlns="http://www.w3.org/2000/svg"
   xmlns:sodipodi="http://sodipodi.sourceforge.net/DTD/sodipodi-0.dtd"
   xmlns:inkscape="http://www.inkscape.org/namespaces/inkscape"
   version="1.1"
   id="svg3891"
   height="2048"
   width="2048"
   sodipodi:docname="callchoreography-expanded.svg"
   inkscape:version="0.92.3 (2405546, 2018-03-11)">
  <sodipodi:namedview
     pagecolor="#ffffff"
     bordercolor="#666666"
     borderopacity="1"
     objecttolerance="10"
     gridtolerance="10"
     guidetolerance="10"
     inkscape:pageopacity="0"
     inkscape:pageshadow="2"
     inkscape:window-width="1920"
     inkscape:window-height="1147"
     id="namedview8"
     showgrid="false"
     showguides="false"
     inkscape:zoom="0.32593203"
     inkscape:cx="624.09472"
     inkscape:cy="846.57079"
     inkscape:window-x="1672"
     inkscape:window-y="-8"
     inkscape:window-maximized="1"
     inkscape:current-layer="layer1-6" />
  <defs
     id="defs3893" />
  <metadata
     id="metadata3896">
    <rdf:RDF>
      <cc:Work
         rdf:about="">
        <dc:format>image/svg+xml</dc:format>
        <dc:type
           rdf:resource="http://purl.org/dc/dcmitype/StillImage" />
        <dc:title />
      </cc:Work>
    </rdf:RDF>
  </metadata>
  <g
     transform="translate(0,995.63783)"
     id="layer1">
    <g
       id="layer1-6"
       transform="matrix(96.752895,0,0,96.752895,55.328158,-100816.34)">
      <path
         sodipodi:type="inkscape:offset"
         inkscape:radius="0.72930455"
         inkscape:original="M 3.9882812 1033.502 C 2.1823812 1033.502 0.71289063 1034.9714 0.71289062 1036.7773 L 0.71289062 1047.8047 C 0.71289062 1049.6106 2.1823812 1051.0801 3.9882812 1051.0801 L 16.035156 1051.0801 C 17.841055 1051.0801 19.310547 1049.6106 19.310547 1047.8047 L 19.310547 1036.7773 C 19.310547 1034.9714 17.841055 1033.502 16.035156 1033.502 L 3.9882812 1033.502 z "
         style="color:#000000;font-style:normal;font-variant:normal;font-weight:normal;font-stretch:normal;font-size:medium;line-height:normal;font-family:sans-serif;text-indent:0;text-align:start;text-decoration:none;text-decoration-line:none;text-decoration-style:solid;text-decoration-color:#000000;letter-spacing:normal;word-spacing:normal;text-transform:none;writing-mode:lr-tb;direction:ltr;baseline-shift:baseline;text-anchor:start;white-space:normal;clip-rule:nonzero;display:inline;overflow:visible;visibility:visible;opacity:1;isolation:auto;mix-blend-mode:normal;color-interpolation:sRGB;color-interpolation-filters:linearRGB;solid-color:#000000;solid-opacity:1;fill:#000000;fill-opacity:1;fill-rule:nonzero;stroke:none;stroke-width:1.03356075;stroke-linecap:round;stroke-linejoin:round;stroke-miterlimit:4;stroke-dasharray:none;stroke-dashoffset:0;stroke-opacity:1;color-rendering:auto;image-rendering:auto;shape-rendering:auto;text-rendering:auto;enable-background:accumulate"
         id="rect3804-6"
         d="m 3.9882812,1032.7734 c -2.201507,0 -4.00390619,1.8024 -4.0039062,4.0039 v 11.0274 c 0,2.2015 1.8023723,4.0039 4.0039062,4.0039 H 16.035156 c 2.201533,0 4.003906,-1.8024 4.003906,-4.0039 v -11.0274 c 0,-2.2015 -1.802399,-4.0039 -4.003906,-4.0039 z"
         transform="matrix(1.0003387,0,0,1.0003387,-0.00339145,-0.35307425)" />
      <path
         style="fill:#ffffff;stroke:#000000;stroke-width:0.01033561px;stroke-linecap:butt;stroke-linejoin:miter;stroke-opacity:1"
         d="m 2.1870014,1034.673 -1.0781719,1.4587 0.1585547,12.0501 0.8244844,1.9661 2.2197655,0.6025 12.5041319,-0.2776 1.480391,-1.1811 0.475664,-1.8392 -0.09513,-11.2257 -1.205016,-1.6807 -2.251477,-0.6976 -11.9550218,0.063 z"
         id="path4573"
         inkscape:connector-curvature="0" />
      <path
         style="color:#000000;font-style:normal;font-variant:normal;font-weight:normal;font-stretch:normal;font-size:medium;line-height:normal;font-family:sans-serif;text-indent:0;text-align:start;text-decoration:none;text-decoration-line:none;text-decoration-style:solid;text-decoration-color:#000000;letter-spacing:normal;word-spacing:normal;text-transform:none;writing-mode:lr-tb;direction:ltr;baseline-shift:baseline;text-anchor:start;white-space:normal;clip-rule:nonzero;display:inline;overflow:visible;visibility:visible;opacity:1;isolation:auto;mix-blend-mode:normal;color-interpolation:sRGB;color-interpolation-filters:linearRGB;solid-color:#000000;solid-opacity:1;fill:#000000;fill-opacity:1;fill-rule:nonzero;stroke:none;stroke-width:99.99999237;stroke-linecap:round;stroke-linejoin:round;stroke-miterlimit:4;stroke-dasharray:none;stroke-dashoffset:0;stroke-opacity:1;color-rendering:auto;image-rendering:auto;shape-rendering:auto;text-rendering:auto;enable-background:accumulate"
         d="m 441.20508,173.57424 c -174.72603,0 -316.90235,142.16848 -316.90235,316.89453 V 1557.4707 c 0,174.7261 142.17632,316.9043 316.90235,316.9043 H 1606.7754 c 174.726,0 316.9043,-142.1782 316.9043,-316.9043 V 490.46877 c 0,-174.72605 -142.1783,-316.89453 -316.9043,-316.89453 z m 0,99.96484 H 1606.7754 c 121.0558,0 216.9394,95.88214 216.9394,216.92969 V 562.1426 H 224.26758 v -71.67383 c 0,-121.04755 95.88175,-216.92969 216.9375,-216.92969 z M 224.26758,662.1426 H 1823.7148 v 723.6621 H 224.26758 Z m 0,823.6621 H 1823.7148 v 71.666 c 0,121.0572 -95.8836,216.9395 -216.9394,216.9395 H 441.20508 c -121.05575,0 -216.9375,-95.8823 -216.9375,-216.9395 z"
         transform="matrix(0.01033561,0,0,0.01033561,-0.57185015,1031.7077)"
         id="rect3804"
         inkscape:connector-curvature="0"
         sodipodi:nodetypes="ssssssssssssccsscccccccssssc" />
      <g
         id="g37"
         transform="translate(0,0.14615683)" />
      <rect
         id="rect4571-0"
         width="0.42939925"
         height="3.8851335"
         x="235.85275"
         y="987.80115"
         style="stroke-width:0.01101753"
         transform="matrix(0.93589743,0.35227263,-0.22000725,0.97549824,0,0)" />
      <rect
         id="rect4571-8"
         width="0.42939925"
         height="3.8851335"
         x="236.85593"
         y="987.43884"
         style="stroke-width:0.01101753"
         transform="matrix(0.93589743,0.35227263,-0.22000725,0.97549824,0,0)" />
      <rect
         id="rect4571-0-7"
         width="0.42939925"
         height="3.8851335"
         x="237.8591"
         y="987.0766"
         style="stroke-width:0.01101753"
         transform="matrix(0.93589743,0.35227263,-0.22000725,0.97549824,0,0)" />
      <rect
         id="rect4571-5"
         width="0.42939925"
         height="3.8851335"
         x="238.86227"
         y="986.71436"
         style="stroke-width:0.01101753"
         transform="matrix(0.93589743,0.35227263,-0.22000725,0.97549824,0,0)" />
      <rect
         id="rect4571-0-9"
         width="0.42939925"
         height="3.8851335"
         x="239.86545"
         y="986.35211"
         style="stroke-width:0.01101753"
         transform="matrix(0.93589743,0.35227263,-0.22000725,0.97549824,0,0)" />
      <rect
         id="rect4571-8-8"
         width="0.42939925"
         height="3.8851335"
         x="240.86862"
         y="985.98981"
         style="stroke-width:0.01101753"
         transform="matrix(0.93589743,0.35227263,-0.22000725,0.97549824,0,0)" />
      <rect
         id="rect4571-0-7-4"
         width="0.42939925"
         height="3.8851335"
         x="241.8718"
         y="985.62756"
         style="stroke-width:0.01101753"
         transform="matrix(0.93589743,0.35227263,-0.22000725,0.97549824,0,0)" />
      <rect
         id="rect4571-50"
         width="0.42939925"
         height="3.8851335"
         x="242.87497"
         y="985.26526"
         style="stroke-width:0.01101753"
         transform="matrix(0.93589743,0.35227263,-0.22000725,0.97549824,0,0)" />
      <rect
         id="rect4571-0-8"
         width="0.42939925"
         height="3.8851335"
         x="243.87814"
         y="984.90302"
         style="stroke-width:0.01101753"
         transform="matrix(0.93589743,0.35227263,-0.22000725,0.97549824,0,0)" />
      <rect
         id="rect4571-8-4"
         width="0.42939925"
         height="3.8851335"
         x="244.8813"
         y="984.54077"
         style="stroke-width:0.01101753"
         transform="matrix(0.93589743,0.35227263,-0.22000725,0.97549824,0,0)" />
      <rect
         id="rect4571-0-7-2"
         width="0.42939925"
         height="3.8851335"
         x="245.88448"
         y="984.17847"
         style="stroke-width:0.01101753"
         transform="matrix(0.93589743,0.35227263,-0.22000725,0.97549824,0,0)" />
      <rect
         id="rect4571-5-9"
         width="0.42939925"
         height="3.8851335"
         x="246.88765"
         y="983.81616"
         style="stroke-width:0.01101753"
         transform="matrix(0.93589743,0.35227263,-0.22000725,0.97549824,0,0)" />
      <rect
         id="rect4571-0-9-4"
         width="0.42939925"
         height="3.8851335"
         x="247.89082"
         y="983.45392"
         style="stroke-width:0.01101753"
         transform="matrix(0.93589743,0.35227263,-0.22000725,0.97549824,0,0)" />
      <rect
         id="rect4571-8-8-5"
         width="0.42939925"
         height="3.8851335"
         x="248.894"
         y="983.09167"
         style="stroke-width:0.01101753"
         transform="matrix(0.93589743,0.35227263,-0.22000725,0.97549824,0,0)" />
      <rect
         id="rect4571-0-7-4-3"
         width="0.42939925"
         height="3.8851335"
         x="249.89717"
         y="982.72943"
         style="stroke-width:0.01101753"
         transform="matrix(0.93589743,0.35227263,-0.22000725,0.97549824,0,0)" />
      <path
         style="stroke-width:0.0109649"
         d="m 2.3919264,1046.6842 -0.6451883,2.8608 h 0.4359931 l 0.6110728,-2.7096 z"
         id="rect4571"
         inkscape:connector-curvature="0" />
      <path
         style="color:#000000;font-style:normal;font-variant:normal;font-weight:normal;font-stretch:normal;font-size:medium;line-height:normal;font-family:Sans;-inkscape-font-specification:Sans;text-indent:0;text-align:start;text-decoration:none;text-decoration-line:none;letter-spacing:normal;word-spacing:normal;text-transform:none;writing-mode:lr-tb;direction:ltr;baseline-shift:baseline;text-anchor:start;display:inline;overflow:visible;visibility:visible;fill:#000000;fill-opacity:1;stroke:none;stroke-width:0.97517043;marker:none;enable-background:accumulate"
         d="m 6.430882,1039.5212 v 0.3281 6.5057 0.3278 h 0.3280989 6.5054851 0.328099 v -0.3278 -6.5057 -0.3281 H 13.264466 6.7589809 Z m 0.6559806,0.6562 h 5.8497224 v 5.8495 H 7.0868626 Z"
         id="rect3830"
         inkscape:connector-curvature="0" />
      <path
         inkscape:connector-curvature="0"
         id="path3834"
         d="m 7.863219,1042.5 v 0.9944 h 4.297009 V 1042.5 Z"
         style="color:#000000;font-style:normal;font-variant:normal;font-weight:normal;font-stretch:normal;font-size:medium;line-height:normal;font-family:Sans;-inkscape-font-specification:Sans;text-indent:0;text-align:start;text-decoration:none;text-decoration-line:none;letter-spacing:normal;word-spacing:normal;text-transform:none;writing-mode:lr-tb;direction:ltr;baseline-shift:baseline;text-anchor:start;display:inline;overflow:visible;visibility:visible;fill:#000000;fill-opacity:1;stroke:none;stroke-width:0.01828781;marker:none;enable-background:accumulate"
         sodipodi:nodetypes="ccccc" />
    </g>
  </g>
</svg>
