<?xml version="1.0" encoding="UTF-8" standalone="no"?>
<svg
   xmlns:dc="http://purl.org/dc/elements/1.1/"
   xmlns:cc="http://creativecommons.org/ns#"
   xmlns:rdf="http://www.w3.org/1999/02/22-rdf-syntax-ns#"
   xmlns:svg="http://www.w3.org/2000/svg"
   xmlns="http://www.w3.org/2000/svg"
   xmlns:sodipodi="http://sodipodi.sourceforge.net/DTD/sodipodi-0.dtd"
   xmlns:inkscape="http://www.inkscape.org/namespaces/inkscape"
   version="1.1"
   id="svg3891"
   height="2048"
   width="2048"
   sodipodi:docname="callchoreography-expanded.svg"
   inkscape:version="0.92.3 (2405546, 2018-03-11)">
  <sodipodi:namedview
     pagecolor="#ffffff"
     bordercolor="#666666"
     borderopacity="1"
     objecttolerance="10"
     gridtolerance="10"
     guidetolerance="10"
     inkscape:pageopacity="0"
     inkscape:pageshadow="2"
     inkscape:window-width="1920"
     inkscape:window-height="1147"
     id="namedview8"
     showgrid="false"
     showguides="false"
     inkscape:zoom="0.32593203"
     inkscape:cx="981.96176"
     inkscape:cy="846.57079"
     inkscape:window-x="1672"
     inkscape:window-y="-8"
     inkscape:window-maximized="1"
     inkscape:current-layer="layer1-6" />
  <defs
     id="defs3893" />
  <metadata
     id="metadata3896">
    <rdf:RDF>
      <cc:Work
         rdf:about="">
        <dc:format>image/svg+xml</dc:format>
        <dc:type
           rdf:resource="http://purl.org/dc/dcmitype/StillImage" />
        <dc:title />
      </cc:Work>
    </rdf:RDF>
  </metadata>
  <g
     transform="translate(0,995.63783)"
     id="layer1">
    <g
       id="layer1-6"
       transform="matrix(96.752895,0,0,96.752895,55.328158,-100816.34)">
      <path
         style="color:#000000;font-style:normal;font-variant:normal;font-weight:normal;font-stretch:normal;font-size:medium;line-height:normal;font-family:sans-serif;text-indent:0;text-align:start;text-decoration:none;text-decoration-line:none;text-decoration-style:solid;text-decoration-color:#000000;letter-spacing:normal;word-spacing:normal;text-transform:none;writing-mode:lr-tb;direction:ltr;baseline-shift:baseline;text-anchor:start;white-space:normal;clip-rule:nonzero;display:inline;overflow:visible;visibility:visible;opacity:1;isolation:auto;mix-blend-mode:normal;color-interpolation:sRGB;color-interpolation-filters:linearRGB;solid-color:#000000;solid-opacity:1;fill:#000000;fill-opacity:1;fill-rule:nonzero;stroke:none;stroke-width:100.03386688;stroke-linecap:round;stroke-linejoin:round;stroke-miterlimit:4;stroke-dasharray:none;stroke-dashoffset:0;stroke-opacity:1;color-rendering:auto;image-rendering:auto;shape-rendering:auto;text-rendering:auto;enable-background:accumulate"
         d="M 441.00781 102.80469 C 227.93341 102.80469 53.488282 277.25245 53.488281 490.32617 L 53.488281 1557.6191 C 53.488281 1770.693 227.93081 1945.1445 441.00781 1945.1445 L 1606.9727 1945.1445 C 1820.0495 1945.1445 1994.4941 1770.693 1994.4941 1557.6191 L 1994.4941 490.32617 C 1994.4941 277.25245 1820.047 102.80469 1606.9727 102.80469 L 441.00781 102.80469 z M 441.20508 273.54688 L 1606.7754 273.54688 C 1727.8312 273.54688 1823.7148 369.42896 1823.7148 490.47656 L 1823.7148 562.15039 L 224.26758 562.15039 L 224.26758 490.47656 C 224.26758 369.42896 320.14929 273.54688 441.20508 273.54688 z M 224.26758 662.15039 L 1823.7148 662.15039 L 1823.7148 1385.8125 L 1370.4473 1385.8125 L 1370.4473 787.72852 L 1370.4473 755.98242 L 1338.7031 755.98242 L 709.2793 755.98242 L 677.53516 755.98242 L 677.53516 787.72852 L 677.53516 1385.8125 L 224.26758 1385.8125 L 224.26758 662.15039 z M 741.00195 819.47266 L 1306.9805 819.47266 L 1306.9805 1385.4277 L 741.00195 1385.4277 L 741.00195 819.47266 z M 816.11719 1044.1914 L 816.11719 1140.4023 L 1231.8652 1140.4023 L 1231.8652 1044.1914 L 816.11719 1044.1914 z M 224.26758 1485.8145 L 278.45703 1485.8145 L 242.44922 1645.4727 C 230.7502 1618.6644 224.26758 1588.9269 224.26758 1557.4824 L 224.26758 1485.8145 z M 320.63867 1485.8145 L 376.98242 1485.8145 L 320.07031 1738.1602 C 302.43761 1726.4133 286.67399 1712.1441 273.27539 1695.832 L 320.63867 1485.8145 z M 419.16602 1485.8145 L 475.53125 1485.8145 L 410.9043 1772.3672 C 392.28682 1769.8366 374.46968 1765.0036 357.74219 1758.1543 L 419.16602 1485.8145 z M 517.71484 1485.8145 L 574.08008 1485.8145 L 508.99023 1774.4219 L 452.62305 1774.4219 L 517.71484 1485.8145 z M 616.26367 1485.8145 L 672.63086 1485.8145 L 607.54102 1774.4219 L 551.17383 1774.4219 L 616.26367 1485.8145 z M 714.81445 1485.8145 L 771.17969 1485.8145 L 706.08984 1774.4219 L 649.72266 1774.4219 L 714.81445 1485.8145 z M 813.36328 1485.8145 L 869.72852 1485.8145 L 804.63867 1774.4219 L 748.27148 1774.4219 L 813.36328 1485.8145 z M 911.91406 1485.8145 L 968.2793 1485.8145 L 903.18945 1774.4219 L 846.82227 1774.4219 L 911.91406 1485.8145 z M 1010.4629 1485.8145 L 1066.8281 1485.8145 L 1001.7383 1774.4219 L 945.37109 1774.4219 L 1010.4629 1485.8145 z M 1109.0117 1485.8145 L 1165.3789 1485.8145 L 1100.2871 1774.4219 L 1043.9219 1774.4219 L 1109.0117 1485.8145 z M 1207.5625 1485.8145 L 1263.9258 1485.8145 L 1198.8359 1774.4219 L 1142.4707 1774.4219 L 1207.5625 1485.8145 z M 1306.1094 1485.8145 L 1362.4746 1485.8145 L 1297.3848 1774.4219 L 1241.0195 1774.4219 L 1306.1094 1485.8145 z M 1404.6582 1485.8145 L 1461.0254 1485.8145 L 1395.9336 1774.4219 L 1339.5684 1774.4219 L 1404.6582 1485.8145 z M 1503.209 1485.8145 L 1559.5742 1485.8145 L 1494.4824 1774.4219 L 1438.1172 1774.4219 L 1503.209 1485.8145 z M 1601.7578 1485.8145 L 1658.123 1485.8145 L 1593.0332 1774.4219 L 1536.666 1774.4219 L 1601.7578 1485.8145 z M 1700.3086 1485.8145 L 1756.6738 1485.8145 L 1695.7832 1755.7988 C 1677.0419 1764.0928 1656.8519 1769.8225 1635.6348 1772.5645 L 1700.3086 1485.8145 z M 1798.8574 1485.8145 L 1823.7148 1485.8145 L 1823.7148 1557.4824 C 1823.7148 1625.8271 1793.1485 1686.1419 1744.75 1725.7148 L 1798.8574 1485.8145 z "
         transform="matrix(0.01033561,0,0,0.01033561,-0.57185015,1031.7077)"
         id="rect3804-6" />
      <g
         id="g37"
         transform="translate(0,0.14615683)" />
    </g>
  </g>
</svg>
