<?xml version="1.0" encoding="UTF-8" standalone="no"?>
<svg
   xmlns:dc="http://purl.org/dc/elements/1.1/"
   xmlns:cc="http://creativecommons.org/ns#"
   xmlns:rdf="http://www.w3.org/1999/02/22-rdf-syntax-ns#"
   xmlns:svg="http://www.w3.org/2000/svg"
   xmlns="http://www.w3.org/2000/svg"
   xmlns:sodipodi="http://sodipodi.sourceforge.net/DTD/sodipodi-0.dtd"
   xmlns:inkscape="http://www.inkscape.org/namespaces/inkscape"
   version="1.1"
   id="svg3891"
   height="2048"
   width="2048"
   sodipodi:docname="choreography-task.svg"
   inkscape:version="0.92.3 (2405546, 2018-03-11)">
  <sodipodi:namedview
     pagecolor="#ffffff"
     bordercolor="#666666"
     borderopacity="1"
     objecttolerance="10"
     gridtolerance="10"
     guidetolerance="10"
     inkscape:pageopacity="0"
     inkscape:pageshadow="2"
     inkscape:window-width="1920"
     inkscape:window-height="1147"
     id="namedview8"
     showgrid="false"
     showguides="false"
     inkscape:zoom="0.32593203"
     inkscape:cx="1261.8749"
     inkscape:cy="841.41157"
     inkscape:window-x="1672"
     inkscape:window-y="-8"
     inkscape:window-maximized="1"
     inkscape:current-layer="layer1-6" />
  <defs
     id="defs3893" />
  <metadata
     id="metadata3896">
    <rdf:RDF>
      <cc:Work
         rdf:about="">
        <dc:format>image/svg+xml</dc:format>
        <dc:type
           rdf:resource="http://purl.org/dc/dcmitype/StillImage" />
        <dc:title></dc:title>
      </cc:Work>
    </rdf:RDF>
  </metadata>
  <g
     transform="translate(0,995.63783)"
     id="layer1">
    <g
       id="layer1-6"
       transform="matrix(96.752895,0,0,96.752895,55.328158,-100816.34)">
      <path
         style="color:#000000;font-style:normal;font-variant:normal;font-weight:normal;font-stretch:normal;font-size:medium;line-height:normal;font-family:sans-serif;text-indent:0;text-align:start;text-decoration:none;text-decoration-line:none;text-decoration-style:solid;text-decoration-color:#000000;letter-spacing:normal;word-spacing:normal;text-transform:none;writing-mode:lr-tb;direction:ltr;baseline-shift:baseline;text-anchor:start;white-space:normal;clip-rule:nonzero;display:inline;overflow:visible;visibility:visible;opacity:1;isolation:auto;mix-blend-mode:normal;color-interpolation:sRGB;color-interpolation-filters:linearRGB;solid-color:#000000;solid-opacity:1;fill:#000000;fill-opacity:1;fill-rule:nonzero;stroke:none;stroke-width:99.99999237;stroke-linecap:round;stroke-linejoin:round;stroke-miterlimit:4;stroke-dasharray:none;stroke-dashoffset:0;stroke-opacity:1;color-rendering:auto;image-rendering:auto;shape-rendering:auto;text-rendering:auto;enable-background:accumulate"
         d="M 441.20508 173.57812 C 266.47902 173.57812 124.30273 315.74657 124.30273 490.47266 L 124.30273 1557.4766 C 124.30273 1732.2027 266.47902 1874.3809 441.20508 1874.3809 L 1606.7754 1874.3809 C 1781.5014 1874.3809 1923.6797 1732.2027 1923.6797 1557.4766 L 1923.6797 490.47266 C 1923.6797 315.74657 1781.5014 173.57812 1606.7754 173.57812 L 441.20508 173.57812 z M 441.20508 273.54297 L 1606.7754 273.54297 C 1727.8312 273.54297 1823.7148 369.42508 1823.7148 490.47266 L 1823.7148 562.14648 L 224.26758 562.14648 L 224.26758 490.47266 C 224.26758 369.42508 320.14931 273.54297 441.20508 273.54297 z M 224.26758 662.14648 L 1823.7148 662.14648 L 1823.7148 1385.8086 L 224.26758 1385.8086 L 224.26758 662.14648 z M 224.26758 1485.8105 L 278.45703 1485.8105 L 242.45117 1645.4688 C 230.7515 1618.6599 224.26758 1588.922 224.26758 1557.4766 L 224.26758 1485.8105 z M 320.64062 1485.8105 L 376.98242 1485.8105 L 320.07227 1738.1543 C 302.43978 1726.4077 286.67591 1712.1397 273.27734 1695.8281 L 320.64062 1485.8105 z M 419.16602 1485.8105 L 475.5332 1485.8105 L 410.9043 1772.3613 C 392.28752 1769.8308 374.47109 1764.9992 357.74414 1758.1504 L 419.16602 1485.8105 z M 517.7168 1485.8105 L 574.08203 1485.8105 L 508.99023 1774.416 L 452.625 1774.416 L 517.7168 1485.8105 z M 616.26562 1485.8105 L 672.63086 1485.8105 L 607.54102 1774.416 L 551.17383 1774.416 L 616.26562 1485.8105 z M 714.81445 1485.8105 L 771.17969 1485.8105 L 706.0918 1774.416 L 649.72266 1774.416 L 714.81445 1485.8105 z M 813.36328 1485.8105 L 869.73047 1485.8105 L 804.63867 1774.416 L 748.27344 1774.416 L 813.36328 1485.8105 z M 911.91406 1485.8105 L 968.2793 1485.8105 L 903.18945 1774.416 L 846.82227 1774.416 L 911.91406 1485.8105 z M 1010.4629 1485.8105 L 1066.8301 1485.8105 L 1001.7383 1774.416 L 945.37305 1774.416 L 1010.4629 1485.8105 z M 1109.0137 1485.8105 L 1165.3789 1485.8105 L 1100.2871 1774.416 L 1043.9219 1774.416 L 1109.0137 1485.8105 z M 1207.5625 1485.8105 L 1263.9258 1485.8105 L 1198.8379 1774.416 L 1142.4707 1774.416 L 1207.5625 1485.8105 z M 1306.1094 1485.8105 L 1362.4766 1485.8105 L 1297.3867 1774.416 L 1241.0215 1774.416 L 1306.1094 1485.8105 z M 1404.6602 1485.8105 L 1461.0254 1485.8105 L 1395.9355 1774.416 L 1339.5684 1774.416 L 1404.6602 1485.8105 z M 1503.209 1485.8105 L 1559.5762 1485.8105 L 1494.4844 1774.416 L 1438.1191 1774.416 L 1503.209 1485.8105 z M 1601.7598 1485.8105 L 1658.125 1485.8105 L 1593.0332 1774.416 L 1536.668 1774.416 L 1601.7598 1485.8105 z M 1700.3086 1485.8105 L 1756.6738 1485.8105 L 1695.7852 1755.793 C 1677.0439 1764.0871 1656.8538 1769.8165 1635.6367 1772.5586 L 1700.3086 1485.8105 z M 1798.8574 1485.8105 L 1823.7148 1485.8105 L 1823.7148 1557.4766 C 1823.7148 1625.8203 1793.1492 1686.134 1744.752 1725.707 L 1798.8574 1485.8105 z "
         transform="matrix(0.01033561,0,0,0.01033561,-0.57185015,1031.7077)"
         id="rect3804" />
      <g
         id="g37"
         transform="translate(0,0.14615683)" />
    </g>
  </g>
</svg>
