<?xml version="1.0" encoding="UTF-8" standalone="no"?>
<svg
   xmlns:dc="http://purl.org/dc/elements/1.1/"
   xmlns:cc="http://creativecommons.org/ns#"
   xmlns:rdf="http://www.w3.org/1999/02/22-rdf-syntax-ns#"
   xmlns:svg="http://www.w3.org/2000/svg"
   xmlns="http://www.w3.org/2000/svg"
   xmlns:sodipodi="http://sodipodi.sourceforge.net/DTD/sodipodi-0.dtd"
   xmlns:inkscape="http://www.inkscape.org/namespaces/inkscape"
   version="1.1"
   id="svg3891"
   height="2048"
   width="2048"
   sodipodi:docname="add-participant-band.svg"
   inkscape:version="0.92.3 (2405546, 2018-03-11)">
  <sodipodi:namedview
     pagecolor="#ffffff"
     bordercolor="#666666"
     borderopacity="1"
     objecttolerance="10"
     gridtolerance="10"
     guidetolerance="10"
     inkscape:pageopacity="0"
     inkscape:pageshadow="2"
     inkscape:window-width="1680"
     inkscape:window-height="997"
     id="namedview8"
     showgrid="false"
     showguides="false"
     inkscape:zoom="0.32593203"
     inkscape:cx="892.6007"
     inkscape:cy="923.4497"
     inkscape:window-x="-8"
     inkscape:window-y="-8"
     inkscape:window-maximized="1"
     inkscape:current-layer="layer1-6" />
  <defs
     id="defs3893" />
  <metadata
     id="metadata3896">
    <rdf:RDF>
      <cc:Work
         rdf:about="">
        <dc:format>image/svg+xml</dc:format>
        <dc:type
           rdf:resource="http://purl.org/dc/dcmitype/StillImage" />
        <dc:title />
      </cc:Work>
    </rdf:RDF>
  </metadata>
  <g
     transform="translate(0,995.63783)"
     id="layer1">
    <g
       id="layer1-6"
       transform="matrix(96.752895,0,0,96.752895,55.328158,-100816.34)">
      <path
         style="color:#000000;font-style:normal;font-variant:normal;font-weight:normal;font-stretch:normal;font-size:medium;line-height:normal;font-family:sans-serif;text-indent:0;text-align:start;text-decoration:none;text-decoration-line:none;text-decoration-style:solid;text-decoration-color:#000000;letter-spacing:normal;word-spacing:normal;text-transform:none;writing-mode:lr-tb;direction:ltr;baseline-shift:baseline;text-anchor:start;white-space:normal;clip-rule:nonzero;display:inline;overflow:visible;visibility:visible;opacity:1;isolation:auto;mix-blend-mode:normal;color-interpolation:sRGB;color-interpolation-filters:linearRGB;solid-color:#000000;solid-opacity:1;fill:#000000;fill-opacity:1;fill-rule:nonzero;stroke:none;stroke-width:100.00000763;stroke-linecap:round;stroke-linejoin:round;stroke-miterlimit:4;stroke-dasharray:none;stroke-dashoffset:0;stroke-opacity:1;color-rendering:auto;image-rendering:auto;shape-rendering:auto;text-rendering:auto;enable-background:accumulate"
         d="M 1168.9551 333.74414 L 1168.9551 645.15625 L 857.54102 645.15625 L 857.54102 835.37891 L 1168.9551 835.37891 L 1168.9551 1146.7969 L 1359.1797 1146.7969 L 1359.1797 835.37891 L 1670.5938 835.37891 L 1670.5938 645.15625 L 1359.1797 645.15625 L 1359.1797 333.74414 L 1168.9551 333.74414 z M 441.20508 937.24805 C 266.47896 937.24805 124.30273 1079.4163 124.30273 1254.1426 L 124.30273 1618.9219 L 224.26758 1518.9531 L 224.26758 1425.8105 L 1823.7148 1425.8105 L 1823.7148 1614.9688 L 1923.6797 1515.002 L 1923.6797 1254.1426 C 1923.6797 1079.4163 1781.5014 937.24805 1606.7754 937.24805 L 1473.4922 937.24805 L 1473.4922 1037.2129 L 1606.7754 1037.2129 C 1727.8312 1037.2129 1823.7148 1133.0949 1823.7148 1254.1426 L 1823.7148 1325.8164 L 224.26758 1325.8164 L 224.26758 1254.1426 C 224.26758 1133.0949 320.14927 1037.2129 441.20508 1037.2129 L 1054.6426 1037.2129 L 1054.6426 937.24805 L 441.20508 937.24805 z "
         transform="matrix(0.01033561,0,0,0.01033561,-0.57185015,1031.7077)"
         id="rect3804" />
      <g
         id="g37"
         transform="translate(0,0.14615683)" />
    </g>
  </g>
</svg>
