<?xml version="1.0" encoding="utf-8"?>
<!-- created with bpmn-js / http://bpmn.io -->
<!DOCTYPE svg PUBLIC "-//W3C//DTD SVG 1.1//EN" "http://www.w3.org/Graphics/SVG/1.1/DTD/svg11.dtd">
<svg xmlns="http://www.w3.org/2000/svg" xmlns:xlink="http://www.w3.org/1999/xlink" width="766" height="408.566650390625" viewBox="298 69.43333435058594 766 408.566650390625" version="1.1"><defs><marker id="sequenceflow-end-white-black-eoe57o9rttq25cq3gsb2a48qp" viewBox="0 0 20 20" refX="11" refY="10" markerWidth="10" markerHeight="10" orient="auto"><path d="M 1 5 L 11 10 L 1 15 Z" style="fill: black; stroke-width: 1px; stroke-linecap: round; stroke-dasharray: 10000, 1; stroke: black;"/></marker></defs><g class="djs-group"><g class="djs-element djs-connection" data-element-id="SequenceFlow_03bydly" style="display: block;"><g class="djs-visual"><path d="m  655,432L682,432 " style="fill: none; stroke-width: 2px; stroke: black; stroke-linejoin: round; marker-end: url('#sequenceflow-end-white-black-eoe57o9rttq25cq3gsb2a48qp');"/></g><polyline points="655,432 682,432 " style="fill: none; stroke-opacity: 0; stroke: white; stroke-width: 15px;" class="djs-hit"/><rect x="649" y="426" width="39" height="12" style="fill: none;" class="djs-outline"/></g></g><g class="djs-group"><g class="djs-element djs-connection" data-element-id="SequenceFlow_1andy45" style="display: block;"><g class="djs-visual"><path d="m  527,432L553,432 " style="fill: none; stroke-width: 2px; stroke: black; stroke-linejoin: round; marker-end: url('#sequenceflow-end-white-black-eoe57o9rttq25cq3gsb2a48qp');"/></g><polyline points="527,432 553,432 " style="fill: none; stroke-opacity: 0; stroke: white; stroke-width: 15px;" class="djs-hit"/><rect x="521" y="426" width="38" height="12" style="fill: none;" class="djs-outline"/></g></g><g class="djs-group"><g class="djs-element djs-connection" data-element-id="SequenceFlow_0v5ksv6" style="display: block;"><g class="djs-visual"><path d="m  389,374L389,432 L425,432 " style="fill: none; stroke-width: 2px; stroke: black; stroke-linejoin: round; marker-end: url('#sequenceflow-end-white-black-eoe57o9rttq25cq3gsb2a48qp');"/></g><polyline points="389,374 389,432 425,432 " style="fill: none; stroke-opacity: 0; stroke: white; stroke-width: 15px;" class="djs-hit"/><rect x="383" y="368" width="48" height="70" style="fill: none;" class="djs-outline"/></g></g><g class="djs-group"><g class="djs-element djs-connection" data-element-id="SequenceFlow_1wrmakf" style="display: block;"><g class="djs-visual"><path d="m  989,175L1008,175 " style="fill: none; stroke-width: 2px; stroke: black; stroke-linejoin: round; marker-end: url('#sequenceflow-end-white-black-eoe57o9rttq25cq3gsb2a48qp');"/></g><polyline points="989,175 1008,175 " style="fill: none; stroke-opacity: 0; stroke: white; stroke-width: 15px;" class="djs-hit"/><rect x="983" y="169" width="31" height="12" style="fill: none;" class="djs-outline"/></g></g><g class="djs-group"><g class="djs-element djs-connection" data-element-id="SequenceFlow_0p6zhml" style="display: block;"><g class="djs-visual"><path d="m  849,175L887,175 " style="fill: none; stroke-width: 2px; stroke: black; stroke-linejoin: round; marker-end: url('#sequenceflow-end-white-black-eoe57o9rttq25cq3gsb2a48qp');"/></g><polyline points="849,175 887,175 " style="fill: none; stroke-opacity: 0; stroke: white; stroke-width: 15px;" class="djs-hit"/><rect x="843" y="169" width="50" height="12" style="fill: none;" class="djs-outline"/></g></g><g class="djs-group"><g class="djs-element djs-connection" data-element-id="SequenceFlow_0pn79h6" style="display: block;"><g class="djs-visual"><path d="m  723,241L723,175 L747,175 " style="fill: none; stroke-width: 2px; stroke: black; stroke-linejoin: round; marker-end: url('#sequenceflow-end-white-black-eoe57o9rttq25cq3gsb2a48qp');"/></g><polyline points="723,241 723,175 747,175 " style="fill: none; stroke-opacity: 0; stroke: white; stroke-width: 15px;" class="djs-hit"/><rect x="717" y="169" width="36" height="78" style="fill: none;" class="djs-outline"/></g></g><g class="djs-group"><g class="djs-element djs-connection" data-element-id="SequenceFlow_1fkpnmt" style="display: block;"><g class="djs-visual"><path d="m  655,266L698,266 " style="fill: none; stroke-width: 2px; stroke: black; stroke-linejoin: round; marker-end: url('#sequenceflow-end-white-black-eoe57o9rttq25cq3gsb2a48qp');"/></g><polyline points="655,266 698,266 " style="fill: none; stroke-opacity: 0; stroke: white; stroke-width: 15px;" class="djs-hit"/><rect x="649" y="260" width="55" height="12" style="fill: none;" class="djs-outline"/></g></g><g class="djs-group"><g class="djs-element djs-connection" data-element-id="SequenceFlow_0jtnfpu" style="display: block;"><g class="djs-visual"><path d="m  527,266L553,266 " style="fill: none; stroke-width: 2px; stroke: black; stroke-linejoin: round; marker-end: url('#sequenceflow-end-white-black-eoe57o9rttq25cq3gsb2a48qp');"/></g><polyline points="527,266 553,266 " style="fill: none; stroke-opacity: 0; stroke: white; stroke-width: 15px;" class="djs-hit"/><rect x="521" y="260" width="38" height="12" style="fill: none;" class="djs-outline"/></g></g><g class="djs-group"><g class="djs-element djs-connection" data-element-id="SequenceFlow_1315hcm" style="display: block;"><g class="djs-visual"><path d="m  389,324L389,266 L425,266 " style="fill: none; stroke-width: 2px; stroke: black; stroke-linejoin: round; marker-end: url('#sequenceflow-end-white-black-eoe57o9rttq25cq3gsb2a48qp');"/></g><polyline points="389,324 389,266 425,266 " style="fill: none; stroke-opacity: 0; stroke: white; stroke-width: 15px;" class="djs-hit"/><rect x="383" y="260" width="48" height="70" style="fill: none;" class="djs-outline"/></g></g><g class="djs-group"><g class="djs-element djs-connection" data-element-id="SequenceFlow_0qp2zvp" style="display: block;"><g class="djs-visual"><path d="m  340,349L364,349 " style="fill: none; stroke-width: 2px; stroke: black; stroke-linejoin: round; marker-end: url('#sequenceflow-end-white-black-eoe57o9rttq25cq3gsb2a48qp');"/></g><polyline points="340,349 364,349 " style="fill: none; stroke-opacity: 0; stroke: white; stroke-width: 15px;" class="djs-hit"/><rect x="334" y="343" width="36" height="12" style="fill: none;" class="djs-outline"/></g></g><g class="djs-group"><g class="djs-element djs-connection" data-element-id="SequenceFlow_0m3x7yv" style="display: block;"><g class="djs-visual"><path d="m  989,353L1008,353 " style="fill: none; stroke-width: 2px; stroke: black; stroke-linejoin: round; marker-end: url('#sequenceflow-end-white-black-eoe57o9rttq25cq3gsb2a48qp');"/></g><polyline points="989,353 1008,353 " style="fill: none; stroke-opacity: 0; stroke: white; stroke-width: 15px;" class="djs-hit"/><rect x="983" y="347" width="31" height="12" style="fill: none;" class="djs-outline"/></g></g><g class="djs-group"><g class="djs-element djs-connection" data-element-id="SequenceFlow_18c32ye" style="display: block;"><g class="djs-visual"><path d="m  723,291L723,353 L747,353 " style="fill: none; stroke-width: 2px; stroke: black; stroke-linejoin: round; marker-end: url('#sequenceflow-end-white-black-eoe57o9rttq25cq3gsb2a48qp');"/></g><polyline points="723,291 723,353 747,353 " style="fill: none; stroke-opacity: 0; stroke: white; stroke-width: 15px;" class="djs-hit"/><rect x="717" y="285" width="36" height="74" style="fill: none;" class="djs-outline"/></g></g><g class="djs-group"><g class="djs-element djs-connection" data-element-id="SequenceFlow_12hjqgx" style="display: block;"><g class="djs-visual"><path d="m  849,353L887,353 " style="fill: none; stroke-width: 2px; stroke: black; stroke-linejoin: round; marker-end: url('#sequenceflow-end-white-black-eoe57o9rttq25cq3gsb2a48qp');"/></g><polyline points="849,353 887,353 " style="fill: none; stroke-opacity: 0; stroke: white; stroke-width: 15px;" class="djs-hit"/><rect x="843" y="347" width="50" height="12" style="fill: none;" class="djs-outline"/></g></g><g class="djs-group"><g class="djs-element djs-shape" data-element-id="StartEvent_1lhmxml" transform="matrix(1, 0, 0, 1, 304, 331)" style="display: block;"><g class="djs-visual"><circle cx="18" cy="18" r="18" style="stroke: black; stroke-width: 2px; fill: white; fill-opacity: 0.95;"/></g><rect x="0" y="0" width="36" height="36" style="fill: none; stroke-opacity: 0; stroke: white; stroke-width: 15px;" class="djs-hit"/><rect x="-6" y="-6" width="48" height="48" style="fill: none;" class="djs-outline"/></g></g><g class="djs-group"><g class="djs-element djs-shape" data-element-id="EventBasedGateway_12ki5rp" transform="matrix(1, 0, 0, 1, 364, 324)" style="display: block;"><g class="djs-visual"><polygon points="25,0 50,25 25,50 0,25" style="stroke: black; stroke-width: 2px; fill: white; fill-opacity: 0.95;"/><circle cx="25" cy="25" r="15" style="stroke: black; stroke-width: 1px; fill: none;"/><circle cx="25" cy="25" r="12" style="stroke: black; stroke-width: 1px; fill: none;"/><path d="m 18,22 7.363636363636364,-4.909090909090909 7.363636363636364,4.909090909090909 -2.4545454545454546,9.818181818181818 -9.818181818181818,0 z" style="fill: none; stroke-width: 2px; stroke: black;"/></g><rect x="0" y="0" width="50" height="50" style="fill: none; stroke-opacity: 0; stroke: white; stroke-width: 15px;" class="djs-hit"/><rect x="-6" y="-6" width="62" height="62" style="fill: none;" class="djs-outline"/></g></g><g class="djs-group"><g class="djs-element djs-shape" data-element-id="ChoreographyTask_01hy58j" transform="matrix(1, 0, 0, 1, 426, 226)" style="display: block;"><g class="djs-visual"><g><path d="M10,0a10,10,0,0,0,-10,10l0,60a10,10,0,0,0,10,10l80,0a10,10,0,0,0,10,-10l0,-60a10,10,0,0,0,-10,-10z" style="fill: white; stroke: black; stroke-width: 2px;"/><text style="font-family: Arial, sans-serif; font-size: 12px; font-weight: normal; fill: black;" lineHeight="1.2" class="djs-label" transform="translate(0, 20)"><tspan x="23.5" y="16.4">file claim </tspan><tspan x="27" y="30.799999999999997">for bond</tspan></text></g></g><rect x="0" y="0" width="100" height="80" style="fill: none; stroke-opacity: 0; stroke: white; stroke-width: 15px;" class="djs-hit"/><rect x="-6" y="-6" width="112" height="92" style="fill: none;" class="djs-outline"/></g><g class="djs-children"><g class="djs-group"><g class="djs-element djs-shape" data-element-id="Participant_0q9liie_ChoreographyTask_01hy58j" transform="matrix(1, 0, 0, 1, 426, 226)" style="display: block;"><g class="djs-visual"><g><path d="M0,20l100,0l0,-10a10,10,0,0,0,-10,-10l-80,0a10,10,0,0,0,-10,10z" style="stroke: rgb(0, 0, 0); stroke-width: 2px; fill: white; fill-opacity: 1;"/><text style="font-family: Arial, sans-serif; font-size: 12px; font-weight: normal; fill: black;" lineHeight="1.2" class="djs-label" transform="translate(0, 0)"><tspan x="25" y="13.6">Landlord</tspan></text></g></g><rect x="0" y="0" width="100" height="20" style="fill: none; stroke-opacity: 0; stroke: white; stroke-width: 15px;" class="djs-hit"/><rect x="-6" y="-6" width="112" height="32" style="fill: none;" class="djs-outline"/></g><g class="djs-children"><g class="djs-group"><g class="djs-element djs-shape" data-element-id="Message_0tx5196" transform="matrix(1, 0, 0, 1, 458.5, 181)" style="display: none;"><g class="djs-visual"><g><path d="M17.5,25l0,20" style="stroke: black; stroke-width: 2px; stroke-dasharray: 0, 4; stroke-linecap: round;"/><path d="M0,0l0,25l35,0l0,-25zM0,0l17.5,15l17.5,-15" style="stroke: rgb(0, 0, 0); stroke-width: 2px; fill: white; fill-opacity: 1;"/></g></g><rect x="0" y="0" width="35" height="25" style="fill: none; stroke-opacity: 0; stroke: white; stroke-width: 15px;" class="djs-hit"/><rect x="-6" y="-6" width="47" height="37" style="fill: none;" class="djs-outline"/></g></g></g></g><g class="djs-group"><g class="djs-element djs-shape" data-element-id="Participant_1ah5i5d_ChoreographyTask_01hy58j" transform="matrix(1, 0, 0, 1, 426, 286)" style="display: block;"><g class="djs-visual"><g><path d="M100,0l-100,0l0,10a10,10,0,0,0,10,10l80,0a10,10,0,0,0,10,-10z" style="stroke: rgb(0, 0, 0); stroke-width: 2px; fill: lightgray; fill-opacity: 1;"/><text style="font-family: Arial, sans-serif; font-size: 12px; font-weight: normal; fill: black;" lineHeight="1.2" class="djs-label" transform="translate(0, 0)"><tspan x="36.5" y="13.6">RBO</tspan></text></g></g><rect x="0" y="0" width="100" height="20" style="fill: none; stroke-opacity: 0; stroke: white; stroke-width: 15px;" class="djs-hit"/><rect x="-6" y="-6" width="112" height="32" style="fill: none;" class="djs-outline"/></g></g></g></g><g class="djs-group"><g class="djs-element djs-shape" data-element-id="ChoreographyTask_0l6ps5i" transform="matrix(1, 0, 0, 1, 554, 226)" style="display: block;"><g class="djs-visual"><g><path d="M10,0a10,10,0,0,0,-10,10l0,60a10,10,0,0,0,10,10l80,0a10,10,0,0,0,10,-10l0,-60a10,10,0,0,0,-10,-10z" style="fill: white; stroke: black; stroke-width: 2px;"/><text style="font-family: Arial, sans-serif; font-size: 12px; font-weight: normal; fill: black;" lineHeight="1.2" class="djs-label" transform="translate(0, 20)"><tspan x="10.5" y="16.4">notify tenant of </tspan><tspan x="34.5" y="30.799999999999997">claim</tspan></text></g></g><rect x="0" y="0" width="100" height="80" style="fill: none; stroke-opacity: 0; stroke: white; stroke-width: 15px;" class="djs-hit"/><rect x="-6" y="-6" width="112" height="92" style="fill: none;" class="djs-outline"/></g><g class="djs-children"><g class="djs-group"><g class="djs-element djs-shape" data-element-id="Participant_1stk7ne_ChoreographyTask_0l6ps5i" transform="matrix(1, 0, 0, 1, 554, 226)" style="display: block;"><g class="djs-visual"><g><path d="M0,20l100,0l0,-10a10,10,0,0,0,-10,-10l-80,0a10,10,0,0,0,-10,10z" style="stroke: rgb(0, 0, 0); stroke-width: 2px; fill: lightgray; fill-opacity: 1;"/><text style="font-family: Arial, sans-serif; font-size: 12px; font-weight: normal; fill: black;" lineHeight="1.2" class="djs-label" transform="translate(0, 0)"><tspan x="31" y="13.6">Tenant</tspan></text></g></g><rect x="0" y="0" width="100" height="20" style="fill: none; stroke-opacity: 0; stroke: white; stroke-width: 15px;" class="djs-hit"/><rect x="-6" y="-6" width="112" height="32" style="fill: none;" class="djs-outline"/></g><g class="djs-children"><g class="djs-group"><g class="djs-element djs-shape" data-element-id="Message_1hzd9in" transform="matrix(1, 0, 0, 1, 586.5, 181)" style="display: none;"><g class="djs-visual"><g><path d="M17.5,25l0,20" style="stroke: black; stroke-width: 2px; stroke-dasharray: 0, 4; stroke-linecap: round;"/><path d="M0,0l0,25l35,0l0,-25zM0,0l17.5,15l17.5,-15" style="stroke: rgb(0, 0, 0); stroke-width: 2px; fill: lightgray; fill-opacity: 1;"/></g></g><rect x="0" y="0" width="35" height="25" style="fill: none; stroke-opacity: 0; stroke: white; stroke-width: 15px;" class="djs-hit"/><rect x="-6" y="-6" width="47" height="37" style="fill: none;" class="djs-outline"/></g></g></g></g><g class="djs-group"><g class="djs-element djs-shape" data-element-id="Participant_1ah5i5d_ChoreographyTask_0l6ps5i" transform="matrix(1, 0, 0, 1, 554, 286)" style="display: block;"><g class="djs-visual"><g><path d="M100,0l-100,0l0,10a10,10,0,0,0,10,10l80,0a10,10,0,0,0,10,-10z" style="stroke: rgb(0, 0, 0); stroke-width: 2px; fill: white; fill-opacity: 1;"/><text style="font-family: Arial, sans-serif; font-size: 12px; font-weight: normal; fill: black;" lineHeight="1.2" class="djs-label" transform="translate(0, 0)"><tspan x="36.5" y="13.6">RBO</tspan></text></g></g><rect x="0" y="0" width="100" height="20" style="fill: none; stroke-opacity: 0; stroke: white; stroke-width: 15px;" class="djs-hit"/><rect x="-6" y="-6" width="112" height="32" style="fill: none;" class="djs-outline"/></g><g class="djs-children"><g class="djs-group"><g class="djs-element djs-shape" data-element-id="Message_1504q3m" transform="matrix(1, 0, 0, 1, 586.5, 326)" style="display: none;"><g class="djs-visual"><g><path d="M17.5,-20l0,20" style="stroke: black; stroke-width: 2px; stroke-dasharray: 0, 4; stroke-linecap: round;"/><path d="M0,0l0,25l35,0l0,-25zM0,0l17.5,15l17.5,-15" style="stroke: rgb(0, 0, 0); stroke-width: 2px; fill: white; fill-opacity: 1;"/></g></g><rect x="0" y="0" width="35" height="25" style="fill: none; stroke-opacity: 0; stroke: white; stroke-width: 15px;" class="djs-hit"/><rect x="-6" y="-6" width="47" height="37" style="fill: none;" class="djs-outline"/></g></g></g></g></g></g><g class="djs-group"><g class="djs-element djs-shape" data-element-id="EventBasedGateway_1qvdtdt" transform="matrix(1, 0, 0, 1, 698, 241)" style="display: block;"><g class="djs-visual"><polygon points="25,0 50,25 25,50 0,25" style="stroke: black; stroke-width: 2px; fill: white; fill-opacity: 0.95;"/><circle cx="25" cy="25" r="15" style="stroke: black; stroke-width: 1px; fill: none;"/><circle cx="25" cy="25" r="12" style="stroke: black; stroke-width: 1px; fill: none;"/><path d="m 18,22 7.363636363636364,-4.909090909090909 7.363636363636364,4.909090909090909 -2.4545454545454546,9.818181818181818 -9.818181818181818,0 z" style="fill: none; stroke-width: 2px; stroke: black;"/></g><rect x="0" y="0" width="50" height="50" style="fill: none; stroke-opacity: 0; stroke: white; stroke-width: 15px;" class="djs-hit"/><rect x="-6" y="-6" width="62" height="62" style="fill: none;" class="djs-outline"/></g></g><g class="djs-group"><g class="djs-element djs-shape" data-element-id="ChoreographyTask_0z7xksu" transform="matrix(1, 0, 0, 1, 888, 135)" style="display: block;"><g class="djs-visual"><g><path d="M10,0a10,10,0,0,0,-10,10l0,60a10,10,0,0,0,10,10l80,0a10,10,0,0,0,10,-10l0,-60a10,10,0,0,0,-10,-10z" style="fill: white; stroke: black; stroke-width: 2px;"/><text style="font-family: Arial, sans-serif; font-size: 12px; font-weight: normal; fill: black;" lineHeight="1.2" class="djs-label" transform="translate(0, 20)"><tspan x="11.499996185302734" y="23.6">notify landlord</tspan></text></g></g><rect x="0" y="0" width="100" height="80" style="fill: none; stroke-opacity: 0; stroke: white; stroke-width: 15px;" class="djs-hit"/><rect x="-6" y="-6" width="112" height="92" style="fill: none;" class="djs-outline"/></g><g class="djs-children"><g class="djs-group"><g class="djs-element djs-shape" data-element-id="Participant_1ah5i5d_ChoreographyTask_0z7xksu" transform="matrix(1, 0, 0, 1, 888, 135)" style="display: block;"><g class="djs-visual"><g><path d="M0,20l100,0l0,-10a10,10,0,0,0,-10,-10l-80,0a10,10,0,0,0,-10,10z" style="stroke: rgb(0, 0, 0); stroke-width: 2px; fill: white; fill-opacity: 1;"/><text style="font-family: Arial, sans-serif; font-size: 12px; font-weight: normal; fill: black;" lineHeight="1.2" class="djs-label" transform="translate(0, 0)"><tspan x="36.5" y="13.6">RBO</tspan></text></g></g><rect x="0" y="0" width="100" height="20" style="fill: none; stroke-opacity: 0; stroke: white; stroke-width: 15px;" class="djs-hit"/><rect x="-6" y="-6" width="112" height="32" style="fill: none;" class="djs-outline"/></g><g class="djs-children"><g class="djs-group"><g class="djs-element djs-shape" data-element-id="Message_01r4gtj" transform="matrix(1, 0, 0, 1, 920.5, 90)" style="display: block;"><g class="djs-visual"><g><path d="M17.5,25l0,20" style="stroke: black; stroke-width: 2px; stroke-dasharray: 0, 4; stroke-linecap: round;"/><path d="M0,0l0,25l35,0l0,-25zM0,0l17.5,15l17.5,-15" style="stroke: rgb(0, 0, 0); stroke-width: 2px; fill: white; fill-opacity: 1;"/><text style="font-family: Arial, sans-serif; font-size: 12px; font-weight: normal; fill: black;" lineHeight="1.2" class="djs-label" transform="translate(-32.5, -25)"><tspan x="20.5" y="16.1">dispute no</tspan></text></g></g><rect x="0" y="0" width="35" height="25" style="fill: none; stroke-opacity: 0; stroke: white; stroke-width: 15px;" class="djs-hit"/><rect x="-6" y="-6" width="47" height="37" style="fill: none;" class="djs-outline"/></g></g></g></g><g class="djs-group"><g class="djs-element djs-shape" data-element-id="Participant_0q9liie_ChoreographyTask_0z7xksu" transform="matrix(1, 0, 0, 1, 888, 195)" style="display: block;"><g class="djs-visual"><g><path d="M100,0l-100,0l0,10a10,10,0,0,0,10,10l80,0a10,10,0,0,0,10,-10z" style="stroke: rgb(0, 0, 0); stroke-width: 2px; fill: lightgray; fill-opacity: 1;"/><text style="font-family: Arial, sans-serif; font-size: 12px; font-weight: normal; fill: black;" lineHeight="1.2" class="djs-label" transform="translate(0, 0)"><tspan x="25" y="13.6">Landlord</tspan></text></g></g><rect x="0" y="0" width="100" height="20" style="fill: none; stroke-opacity: 0; stroke: white; stroke-width: 15px;" class="djs-hit"/><rect x="-6" y="-6" width="112" height="32" style="fill: none;" class="djs-outline"/></g><g class="djs-children"><g class="djs-group"><g class="djs-element djs-shape" data-element-id="Message_12ygvsh" transform="matrix(1, 0, 0, 1, 920.5, 235)" style="display: none;"><g class="djs-visual"><g><path d="M17.5,-20l0,20" style="stroke: black; stroke-width: 2px; stroke-dasharray: 0, 4; stroke-linecap: round;"/><path d="M0,0l0,25l35,0l0,-25zM0,0l17.5,15l17.5,-15" style="stroke: rgb(0, 0, 0); stroke-width: 2px; fill: lightgray; fill-opacity: 1;"/></g></g><rect x="0" y="0" width="35" height="25" style="fill: none; stroke-opacity: 0; stroke: white; stroke-width: 15px;" class="djs-hit"/><rect x="-6" y="-6" width="47" height="37" style="fill: none;" class="djs-outline"/></g></g></g></g></g></g><g class="djs-group"><g class="djs-element djs-shape" data-element-id="EndEvent_0a90n5d" transform="matrix(1, 0, 0, 1, 1008, 157)" style="display: block;"><g class="djs-visual"><circle cx="18" cy="18" r="18" style="stroke: black; stroke-width: 4px; fill: white; fill-opacity: 0.95;"/></g><rect x="0" y="0" width="36" height="36" style="fill: none; stroke-opacity: 0; stroke: white; stroke-width: 15px;" class="djs-hit"/><rect x="-6" y="-6" width="48" height="48" style="fill: none;" class="djs-outline"/></g></g><g class="djs-group"><g class="djs-element djs-shape" data-element-id="EndEvent_0a90n5d_label" transform="matrix(1, 0, 0, 1, 993, 122)" style="display: block;"><g class="djs-visual"><text style="font-family: Arial, sans-serif; font-size: 11px; font-weight: normal; fill: black;" lineHeight="1.2" class="djs-label"><tspan x="0" y="9.899999999999999">start external </tspan><tspan x="8" y="23.099999999999998">arbitration</tspan></text></g><rect x="0" y="0" width="65" height="27" style="fill: none; stroke-opacity: 0; stroke: white; stroke-width: 15px;" class="djs-hit"/><rect x="-6" y="-6" width="77" height="39" style="fill: none;" class="djs-outline"/></g></g><g class="djs-group"><g class="djs-element djs-shape" data-element-id="ChoreographyTask_1wt3qri" transform="matrix(1, 0, 0, 1, 426, 392)" style="display: block;"><g class="djs-visual"><g><path d="M10,0a10,10,0,0,0,-10,10l0,60a10,10,0,0,0,10,10l80,0a10,10,0,0,0,10,-10l0,-60a10,10,0,0,0,-10,-10z" style="fill: white; stroke: black; stroke-width: 2px;"/><text style="font-family: Arial, sans-serif; font-size: 12px; font-weight: normal; fill: black;" lineHeight="1.2" class="djs-label" transform="translate(0, 20)"><tspan x="13" y="23.6">release bond</tspan></text></g></g><rect x="0" y="0" width="100" height="80" style="fill: none; stroke-opacity: 0; stroke: white; stroke-width: 15px;" class="djs-hit"/><rect x="-6" y="-6" width="112" height="92" style="fill: none;" class="djs-outline"/></g><g class="djs-children"><g class="djs-group"><g class="djs-element djs-shape" data-element-id="Participant_0q9liie_ChoreographyTask_1wt3qri" transform="matrix(1, 0, 0, 1, 426, 392)" style="display: block;"><g class="djs-visual"><g><path d="M0,20l100,0l0,-10a10,10,0,0,0,-10,-10l-80,0a10,10,0,0,0,-10,10z" style="stroke: rgb(0, 0, 0); stroke-width: 2px; fill: white; fill-opacity: 1;"/><text style="font-family: Arial, sans-serif; font-size: 12px; font-weight: normal; fill: black;" lineHeight="1.2" class="djs-label" transform="translate(0, 0)"><tspan x="25" y="13.6">Landlord</tspan></text></g></g><rect x="0" y="0" width="100" height="20" style="fill: none; stroke-opacity: 0; stroke: white; stroke-width: 15px;" class="djs-hit"/><rect x="-6" y="-6" width="112" height="32" style="fill: none;" class="djs-outline"/></g><g class="djs-children"><g class="djs-group"><g class="djs-element djs-shape" data-element-id="Message_13wv90e" transform="matrix(1, 0, 0, 1, 458.5, 347)" style="display: none;"><g class="djs-visual"><g><path d="M17.5,25l0,20" style="stroke: black; stroke-width: 2px; stroke-dasharray: 0, 4; stroke-linecap: round;"/><path d="M0,0l0,25l35,0l0,-25zM0,0l17.5,15l17.5,-15" style="stroke: rgb(0, 0, 0); stroke-width: 2px; fill: white; fill-opacity: 1;"/></g></g><rect x="0" y="0" width="35" height="25" style="fill: none; stroke-opacity: 0; stroke: white; stroke-width: 15px;" class="djs-hit"/><rect x="-6" y="-6" width="47" height="37" style="fill: none;" class="djs-outline"/></g></g></g></g><g class="djs-group"><g class="djs-element djs-shape" data-element-id="Participant_1ah5i5d_ChoreographyTask_1wt3qri" transform="matrix(1, 0, 0, 1, 426, 452)" style="display: block;"><g class="djs-visual"><g><path d="M100,0l-100,0l0,10a10,10,0,0,0,10,10l80,0a10,10,0,0,0,10,-10z" style="stroke: rgb(0, 0, 0); stroke-width: 2px; fill: lightgray; fill-opacity: 1;"/><text style="font-family: Arial, sans-serif; font-size: 12px; font-weight: normal; fill: black;" lineHeight="1.2" class="djs-label" transform="translate(0, 0)"><tspan x="36.5" y="13.6">RBO</tspan></text></g></g><rect x="0" y="0" width="100" height="20" style="fill: none; stroke-opacity: 0; stroke: white; stroke-width: 15px;" class="djs-hit"/><rect x="-6" y="-6" width="112" height="32" style="fill: none;" class="djs-outline"/></g></g></g></g><g class="djs-group"><g class="djs-element djs-shape" data-element-id="ChoreographyTask_1eavz1x" transform="matrix(1, 0, 0, 1, 554, 392)" style="display: block;"><g class="djs-visual"><g><path d="M10,0a10,10,0,0,0,-10,10l0,60a10,10,0,0,0,10,10l80,0a10,10,0,0,0,10,-10l0,-60a10,10,0,0,0,-10,-10z" style="fill: white; stroke: black; stroke-width: 2px;"/><text style="font-family: Arial, sans-serif; font-size: 12px; font-weight: normal; fill: black;" lineHeight="1.2" class="djs-label" transform="translate(0, 20)"><tspan x="9.999996185302734" y="16.4">refund bond to </tspan><tspan x="32.5" y="30.799999999999997">tenant</tspan></text></g></g><rect x="0" y="0" width="100" height="80" style="fill: none; stroke-opacity: 0; stroke: white; stroke-width: 15px;" class="djs-hit"/><rect x="-6" y="-6" width="112" height="92" style="fill: none;" class="djs-outline"/></g><g class="djs-children"><g class="djs-group"><g class="djs-element djs-shape" data-element-id="Participant_1ah5i5d_ChoreographyTask_1eavz1x" transform="matrix(1, 0, 0, 1, 554, 392)" style="display: block;"><g class="djs-visual"><g><path d="M0,20l100,0l0,-10a10,10,0,0,0,-10,-10l-80,0a10,10,0,0,0,-10,10z" style="stroke: rgb(0, 0, 0); stroke-width: 2px; fill: white; fill-opacity: 1;"/><text style="font-family: Arial, sans-serif; font-size: 12px; font-weight: normal; fill: black;" lineHeight="1.2" class="djs-label" transform="translate(0, 0)"><tspan x="36.5" y="13.6">RBO</tspan></text></g></g><rect x="0" y="0" width="100" height="20" style="fill: none; stroke-opacity: 0; stroke: white; stroke-width: 15px;" class="djs-hit"/><rect x="-6" y="-6" width="112" height="32" style="fill: none;" class="djs-outline"/></g><g class="djs-children"><g class="djs-group"><g class="djs-element djs-shape" data-element-id="Message_123o0tc" transform="matrix(1, 0, 0, 1, 586.5, 347)" style="display: block;"><g class="djs-visual"><g><path d="M17.5,25l0,20" style="stroke: black; stroke-width: 2px; stroke-dasharray: 0, 4; stroke-linecap: round;"/><path d="M0,0l0,25l35,0l0,-25zM0,0l17.5,15l17.5,-15" style="stroke: rgb(0, 0, 0); stroke-width: 2px; fill: white; fill-opacity: 1;"/><text style="font-family: Arial, sans-serif; font-size: 12px; font-weight: normal; fill: black;" lineHeight="1.2" class="djs-label" transform="translate(-32.5, -25)"><tspan x="8.499996185302734" y="16.1">transfer details</tspan></text></g></g><rect x="0" y="0" width="35" height="25" style="fill: none; stroke-opacity: 0; stroke: white; stroke-width: 15px;" class="djs-hit"/><rect x="-6" y="-6" width="47" height="37" style="fill: none;" class="djs-outline"/></g></g></g></g><g class="djs-group"><g class="djs-element djs-shape" data-element-id="Participant_1stk7ne_ChoreographyTask_1eavz1x" transform="matrix(1, 0, 0, 1, 554, 452)" style="display: block;"><g class="djs-visual"><g><path d="M100,0l-100,0l0,10a10,10,0,0,0,10,10l80,0a10,10,0,0,0,10,-10z" style="stroke: rgb(0, 0, 0); stroke-width: 2px; fill: lightgray; fill-opacity: 1;"/><text style="font-family: Arial, sans-serif; font-size: 12px; font-weight: normal; fill: black;" lineHeight="1.2" class="djs-label" transform="translate(0, 0)"><tspan x="31" y="13.6">Tenant</tspan></text></g></g><rect x="0" y="0" width="100" height="20" style="fill: none; stroke-opacity: 0; stroke: white; stroke-width: 15px;" class="djs-hit"/><rect x="-6" y="-6" width="112" height="32" style="fill: none;" class="djs-outline"/></g><g class="djs-children"><g class="djs-group"><g class="djs-element djs-shape" data-element-id="Message_01j1ww6" transform="matrix(1, 0, 0, 1, 586.5, 492)" style="display: none;"><g class="djs-visual"><g><path d="M17.5,-20l0,20" style="stroke: black; stroke-width: 2px; stroke-dasharray: 0, 4; stroke-linecap: round;"/><path d="M0,0l0,25l35,0l0,-25zM0,0l17.5,15l17.5,-15" style="stroke: rgb(0, 0, 0); stroke-width: 2px; fill: lightgray; fill-opacity: 1;"/></g></g><rect x="0" y="0" width="35" height="25" style="fill: none; stroke-opacity: 0; stroke: white; stroke-width: 15px;" class="djs-hit"/><rect x="-6" y="-6" width="47" height="37" style="fill: none;" class="djs-outline"/></g></g></g></g></g></g><g class="djs-group"><g class="djs-element djs-shape" data-element-id="EndEvent_1f4moyp" transform="matrix(1, 0, 0, 1, 682, 414)" style="display: block;"><g class="djs-visual"><circle cx="18" cy="18" r="18" style="stroke: black; stroke-width: 4px; fill: white; fill-opacity: 0.95;"/></g><rect x="0" y="0" width="36" height="36" style="fill: none; stroke-opacity: 0; stroke: white; stroke-width: 15px;" class="djs-hit"/><rect x="-6" y="-6" width="48" height="48" style="fill: none;" class="djs-outline"/></g></g><g class="djs-group"><g class="djs-element djs-shape" data-element-id="ChoreographyTask_1yn3mit" transform="matrix(1, 0, 0, 1, 748, 135)" style="display: block;"><g class="djs-visual"><g><path d="M10,0a10,10,0,0,0,-10,10l0,60a10,10,0,0,0,10,10l80,0a10,10,0,0,0,10,-10l0,-60a10,10,0,0,0,-10,-10z" style="fill: white; stroke: black; stroke-width: 2px;"/><text style="font-family: Arial, sans-serif; font-size: 12px; font-weight: normal; fill: black;" lineHeight="1.2" class="djs-label" transform="translate(0, 20)"><tspan x="19.5" y="23.6">file dispute</tspan></text></g></g><rect x="0" y="0" width="100" height="80" style="fill: none; stroke-opacity: 0; stroke: white; stroke-width: 15px;" class="djs-hit"/><rect x="-6" y="-6" width="112" height="92" style="fill: none;" class="djs-outline"/></g><g class="djs-children"><g class="djs-group"><g class="djs-element djs-shape" data-element-id="Participant_1stk7ne_ChoreographyTask_1yn3mit" transform="matrix(1, 0, 0, 1, 748, 135)" style="display: block;"><g class="djs-visual"><g><path d="M0,20l100,0l0,-10a10,10,0,0,0,-10,-10l-80,0a10,10,0,0,0,-10,10z" style="stroke: rgb(0, 0, 0); stroke-width: 2px; fill: white; fill-opacity: 1;"/><text style="font-family: Arial, sans-serif; font-size: 12px; font-weight: normal; fill: black;" lineHeight="1.2" class="djs-label" transform="translate(0, 0)"><tspan x="31" y="13.6">Tenant</tspan></text></g></g><rect x="0" y="0" width="100" height="20" style="fill: none; stroke-opacity: 0; stroke: white; stroke-width: 15px;" class="djs-hit"/><rect x="-6" y="-6" width="112" height="32" style="fill: none;" class="djs-outline"/></g><g class="djs-children"><g class="djs-group"><g class="djs-element djs-shape" data-element-id="Message_1kblgky" transform="matrix(1, 0, 0, 1, 780.5, 90)" style="display: none;"><g class="djs-visual"><g><path d="M17.5,25l0,20" style="stroke: black; stroke-width: 2px; stroke-dasharray: 0, 4; stroke-linecap: round;"/><path d="M0,0l0,25l35,0l0,-25zM0,0l17.5,15l17.5,-15" style="stroke: rgb(0, 0, 0); stroke-width: 2px; fill: white; fill-opacity: 1;"/></g></g><rect x="0" y="0" width="35" height="25" style="fill: none; stroke-opacity: 0; stroke: white; stroke-width: 15px;" class="djs-hit"/><rect x="-6" y="-6" width="47" height="37" style="fill: none;" class="djs-outline"/></g></g></g></g><g class="djs-group"><g class="djs-element djs-shape" data-element-id="Participant_1ah5i5d_ChoreographyTask_1yn3mit" transform="matrix(1, 0, 0, 1, 748, 195)" style="display: block;"><g class="djs-visual"><g><path d="M100,0l-100,0l0,10a10,10,0,0,0,10,10l80,0a10,10,0,0,0,10,-10z" style="stroke: rgb(0, 0, 0); stroke-width: 2px; fill: lightgray; fill-opacity: 1;"/><text style="font-family: Arial, sans-serif; font-size: 12px; font-weight: normal; fill: black;" lineHeight="1.2" class="djs-label" transform="translate(0, 0)"><tspan x="36.5" y="13.6">RBO</tspan></text></g></g><rect x="0" y="0" width="100" height="20" style="fill: none; stroke-opacity: 0; stroke: white; stroke-width: 15px;" class="djs-hit"/><rect x="-6" y="-6" width="112" height="32" style="fill: none;" class="djs-outline"/></g><g class="djs-children"><g class="djs-group"><g class="djs-element djs-shape" data-element-id="Message_0jrt4d3" transform="matrix(1, 0, 0, 1, 780.5, 235)" style="display: block;"><g class="djs-visual"><g><path d="M17.5,-20l0,20" style="stroke: black; stroke-width: 2px; stroke-dasharray: 0, 4; stroke-linecap: round;"/><path d="M0,0l0,25l35,0l0,-25zM0,0l17.5,15l17.5,-15" style="stroke: rgb(0, 0, 0); stroke-width: 2px; fill: lightgray; fill-opacity: 1;"/><text style="font-family: Arial, sans-serif; font-size: 12px; font-weight: normal; fill: black;" lineHeight="1.2" class="djs-label" transform="translate(-32.5, 25)"><tspan x="20.5" y="16.1">dispute no</tspan></text></g></g><rect x="0" y="0" width="35" height="25" style="fill: none; stroke-opacity: 0; stroke: white; stroke-width: 15px;" class="djs-hit"/><rect x="-6" y="-6" width="47" height="37" style="fill: none;" class="djs-outline"/></g></g></g></g></g></g><g class="djs-group"><g class="djs-element djs-shape" data-element-id="ChoreographyTask_1mw21pl" transform="matrix(1, 0, 0, 1, 888, 313)" style="display: block;"><g class="djs-visual"><g><path d="M10,0a10,10,0,0,0,-10,10l0,60a10,10,0,0,0,10,10l80,0a10,10,0,0,0,10,-10l0,-60a10,10,0,0,0,-10,-10z" style="fill: white; stroke: black; stroke-width: 2px;"/><text style="font-family: Arial, sans-serif; font-size: 12px; font-weight: normal; fill: black;" lineHeight="1.2" class="djs-label" transform="translate(0, 20)"><tspan x="6.5" y="16.4">transfer bond to </tspan><tspan x="27" y="30.799999999999997">landlord</tspan></text></g></g><rect x="0" y="0" width="100" height="80" style="fill: none; stroke-opacity: 0; stroke: white; stroke-width: 15px;" class="djs-hit"/><rect x="-6" y="-6" width="112" height="92" style="fill: none;" class="djs-outline"/></g><g class="djs-children"><g class="djs-group"><g class="djs-element djs-shape" data-element-id="Participant_1ah5i5d_ChoreographyTask_1mw21pl" transform="matrix(1, 0, 0, 1, 888, 313)" style="display: block;"><g class="djs-visual"><g><path d="M0,20l100,0l0,-10a10,10,0,0,0,-10,-10l-80,0a10,10,0,0,0,-10,10z" style="stroke: rgb(0, 0, 0); stroke-width: 2px; fill: white; fill-opacity: 1;"/><text style="font-family: Arial, sans-serif; font-size: 12px; font-weight: normal; fill: black;" lineHeight="1.2" class="djs-label" transform="translate(0, 0)"><tspan x="36.5" y="13.6">RBO</tspan></text></g></g><rect x="0" y="0" width="100" height="20" style="fill: none; stroke-opacity: 0; stroke: white; stroke-width: 15px;" class="djs-hit"/><rect x="-6" y="-6" width="112" height="32" style="fill: none;" class="djs-outline"/></g><g class="djs-children"><g class="djs-group"><g class="djs-element djs-shape" data-element-id="Message_0gf63g4" transform="matrix(1, 0, 0, 1, 920.5, 268)" style="display: none;"><g class="djs-visual"><g><path d="M17.5,25l0,20" style="stroke: black; stroke-width: 2px; stroke-dasharray: 0, 4; stroke-linecap: round;"/><path d="M0,0l0,25l35,0l0,-25zM0,0l17.5,15l17.5,-15" style="stroke: rgb(0, 0, 0); stroke-width: 2px; fill: white; fill-opacity: 1;"/></g></g><rect x="0" y="0" width="35" height="25" style="fill: none; stroke-opacity: 0; stroke: white; stroke-width: 15px;" class="djs-hit"/><rect x="-6" y="-6" width="47" height="37" style="fill: none;" class="djs-outline"/></g></g></g></g><g class="djs-group"><g class="djs-element djs-shape" data-element-id="Participant_0q9liie_ChoreographyTask_1mw21pl" transform="matrix(1, 0, 0, 1, 888, 373)" style="display: block;"><g class="djs-visual"><g><path d="M100,0l-100,0l0,10a10,10,0,0,0,10,10l80,0a10,10,0,0,0,10,-10z" style="stroke: rgb(0, 0, 0); stroke-width: 2px; fill: lightgray; fill-opacity: 1;"/><text style="font-family: Arial, sans-serif; font-size: 12px; font-weight: normal; fill: black;" lineHeight="1.2" class="djs-label" transform="translate(0, 0)"><tspan x="25" y="13.6">Landlord</tspan></text></g></g><rect x="0" y="0" width="100" height="20" style="fill: none; stroke-opacity: 0; stroke: white; stroke-width: 15px;" class="djs-hit"/><rect x="-6" y="-6" width="112" height="32" style="fill: none;" class="djs-outline"/></g><g class="djs-children"><g class="djs-group"><g class="djs-element djs-shape" data-element-id="Message_0e78mug" transform="matrix(1, 0, 0, 1, 920.5, 413)" style="display: none;"><g class="djs-visual"><g><path d="M17.5,-20l0,20" style="stroke: black; stroke-width: 2px; stroke-dasharray: 0, 4; stroke-linecap: round;"/><path d="M0,0l0,25l35,0l0,-25zM0,0l17.5,15l17.5,-15" style="stroke: rgb(0, 0, 0); stroke-width: 2px; fill: lightgray; fill-opacity: 1;"/></g></g><rect x="0" y="0" width="35" height="25" style="fill: none; stroke-opacity: 0; stroke: white; stroke-width: 15px;" class="djs-hit"/><rect x="-6" y="-6" width="47" height="37" style="fill: none;" class="djs-outline"/></g></g></g></g></g></g><g class="djs-group"><g class="djs-element djs-shape" data-element-id="ChoreographyTask_1rfigic" transform="matrix(1, 0, 0, 1, 748, 313)" style="display: block;"><g class="djs-visual"><g><path d="M10,0a10,10,0,0,0,-10,10l0,60a10,10,0,0,0,10,10l80,0a10,10,0,0,0,10,-10l0,-60a10,10,0,0,0,-10,-10z" style="fill: white; stroke: black; stroke-width: 2px;"/><text style="font-family: Arial, sans-serif; font-size: 12px; font-weight: normal; fill: black;" lineHeight="1.2" class="djs-label" transform="translate(0, 20)"><tspan x="15" y="23.6">accept claim</tspan></text></g></g><rect x="0" y="0" width="100" height="80" style="fill: none; stroke-opacity: 0; stroke: white; stroke-width: 15px;" class="djs-hit"/><rect x="-6" y="-6" width="112" height="92" style="fill: none;" class="djs-outline"/></g><g class="djs-children"><g class="djs-group"><g class="djs-element djs-shape" data-element-id="ParticipantBand_0ozxjml" transform="matrix(1, 0, 0, 1, 748, 313)" style="display: block;"><g class="djs-visual"><g><path d="M0,20l100,0l0,-10a10,10,0,0,0,-10,-10l-80,0a10,10,0,0,0,-10,10z" style="stroke: rgb(0, 0, 0); stroke-width: 2px; fill: white; fill-opacity: 1;"/><text style="font-family: Arial, sans-serif; font-size: 12px; font-weight: normal; fill: black;" lineHeight="1.2" class="djs-label" transform="translate(0, 0)"><tspan x="31" y="13.6">Tenant</tspan></text></g></g><rect x="0" y="0" width="100" height="20" style="fill: none; stroke-opacity: 0; stroke: white; stroke-width: 15px;" class="djs-hit"/><rect x="-6" y="-6" width="112" height="32" style="fill: none;" class="djs-outline"/></g><g class="djs-children"><g class="djs-group"><g class="djs-element djs-shape" data-element-id="Message_01tggt7" transform="matrix(1, 0, 0, 1, 780.5, 268)" style="display: none;"><g class="djs-visual"><g><path d="M17.5,25l0,20" style="stroke: black; stroke-width: 2px; stroke-dasharray: 0, 4; stroke-linecap: round;"/><path d="M0,0l0,25l35,0l0,-25zM0,0l17.5,15l17.5,-15" style="stroke: rgb(0, 0, 0); stroke-width: 2px; fill: white; fill-opacity: 1;"/></g></g><rect x="0" y="0" width="35" height="25" style="fill: none; stroke-opacity: 0; stroke: white; stroke-width: 15px;" class="djs-hit"/><rect x="-6" y="-6" width="47" height="37" style="fill: none;" class="djs-outline"/></g></g></g></g><g class="djs-group"><g class="djs-element djs-shape" data-element-id="ParticipantBand_0b0oant" transform="matrix(1, 0, 0, 1, 748, 373)" style="display: block;"><g class="djs-visual"><g><path d="M100,0l-100,0l0,10a10,10,0,0,0,10,10l80,0a10,10,0,0,0,10,-10z" style="stroke: rgb(0, 0, 0); stroke-width: 2px; fill: lightgray; fill-opacity: 1;"/><text style="font-family: Arial, sans-serif; font-size: 12px; font-weight: normal; fill: black;" lineHeight="1.2" class="djs-label" transform="translate(0, 0)"><tspan x="36.5" y="13.6">RBO</tspan></text></g></g><rect x="0" y="0" width="100" height="20" style="fill: none; stroke-opacity: 0; stroke: white; stroke-width: 15px;" class="djs-hit"/><rect x="-6" y="-6" width="112" height="32" style="fill: none;" class="djs-outline"/></g></g></g></g><g class="djs-group"><g class="djs-element djs-shape selected" data-element-id="EndEvent_1tclkxs" transform="matrix(1, 0, 0, 1, 1008, 335)" style="display: block;"><g class="djs-visual"><circle cx="18" cy="18" r="18" style="stroke: black; stroke-width: 4px; fill: white; fill-opacity: 0.95;"/></g><rect x="0" y="0" width="36" height="36" style="fill: none; stroke-opacity: 0; stroke: white; stroke-width: 15px;" class="djs-hit"/><rect x="-6" y="-6" width="48" height="48" style="fill: none;" class="djs-outline"/></g></g><g style="pointer-events: none;" class="djs-drag-group" transform="matrix(1, 0, 0, 1, 119, 0)"/><g style="pointer-events: none;" class="djs-drag-group" transform="matrix(1, 0, 0, 1, 119, 0)"/><g style="pointer-events: none;" class="djs-drag-group" transform="matrix(1, 0, 0, 1, 119, -4)"/><g style="pointer-events: none;" class="djs-drag-group" transform="matrix(1, 0, 0, 1, 119, 0)"/><g style="pointer-events: none;" class="djs-drag-group" transform="matrix(1, 0, 0, 1, -20, 0)"/><g style="pointer-events: none;" class="djs-drag-group" transform="matrix(1, 0, 0, 1, 1, 0)"/><g style="pointer-events: none;" class="djs-drag-group" transform="matrix(1, 0, 0, 1, 140, 0)"/><g style="pointer-events: none;" class="djs-drag-group" transform="matrix(1, 0, 0, 1, 0, 4)"/><g style="pointer-events: none;" class="djs-drag-group" transform="matrix(1, 0, 0, 1, 140, 0)"/><g style="pointer-events: none;" class="djs-drag-group" transform="matrix(1, 0, 0, 1, -21, 0)"/></svg>