<?xml version="1.0" encoding="UTF-8" standalone="no"?>
<svg
   xmlns:dc="http://purl.org/dc/elements/1.1/"
   xmlns:cc="http://creativecommons.org/ns#"
   xmlns:rdf="http://www.w3.org/1999/02/22-rdf-syntax-ns#"
   xmlns:svg="http://www.w3.org/2000/svg"
   xmlns="http://www.w3.org/2000/svg"
   xmlns:sodipodi="http://sodipodi.sourceforge.net/DTD/sodipodi-0.dtd"
   xmlns:inkscape="http://www.inkscape.org/namespaces/inkscape"
   version="1.1"
   id="svg3891"
   height="2048"
   width="2048"
   sodipodi:docname="delete-participant-band.svg"
   inkscape:version="0.92.3 (2405546, 2018-03-11)">
  <sodipodi:namedview
     pagecolor="#ffffff"
     bordercolor="#666666"
     borderopacity="1"
     objecttolerance="10"
     gridtolerance="10"
     guidetolerance="10"
     inkscape:pageopacity="0"
     inkscape:pageshadow="2"
     inkscape:window-width="1920"
     inkscape:window-height="1147"
     id="namedview8"
     showgrid="false"
     showguides="false"
     inkscape:zoom="0.32593203"
     inkscape:cx="1180.6573"
     inkscape:cy="661.79971"
     inkscape:window-x="1672"
     inkscape:window-y="-8"
     inkscape:window-maximized="1"
     inkscape:current-layer="layer1-6" />
  <defs
     id="defs3893" />
  <metadata
     id="metadata3896">
    <rdf:RDF>
      <cc:Work
         rdf:about="">
        <dc:format>image/svg+xml</dc:format>
        <dc:type
           rdf:resource="http://purl.org/dc/dcmitype/StillImage" />
        <dc:title></dc:title>
      </cc:Work>
    </rdf:RDF>
  </metadata>
  <g
     transform="translate(0,995.63783)"
     id="layer1">
    <g
       id="layer1-6"
       transform="matrix(96.752895,0,0,96.752895,55.328158,-100816.34)">
      <path
         style="color:#000000;font-style:normal;font-variant:normal;font-weight:normal;font-stretch:normal;font-size:medium;line-height:normal;font-family:sans-serif;text-indent:0;text-align:start;text-decoration:none;text-decoration-line:none;text-decoration-style:solid;text-decoration-color:#000000;letter-spacing:normal;word-spacing:normal;text-transform:none;writing-mode:lr-tb;direction:ltr;baseline-shift:baseline;text-anchor:start;white-space:normal;clip-rule:nonzero;display:inline;overflow:visible;visibility:visible;opacity:1;isolation:auto;mix-blend-mode:normal;color-interpolation:sRGB;color-interpolation-filters:linearRGB;solid-color:#000000;solid-opacity:1;fill:#000000;fill-opacity:1;fill-rule:nonzero;stroke:none;stroke-width:100.00000763;stroke-linecap:round;stroke-linejoin:round;stroke-miterlimit:4;stroke-dasharray:none;stroke-dashoffset:0;stroke-opacity:1;color-rendering:auto;image-rendering:auto;shape-rendering:auto;text-rendering:auto;enable-background:accumulate"
         d="M 742.81055 574.93359 L 613.3125 704.42969 L 894.5 985.61719 L 613.31445 1266.8047 L 742.81055 1396.3027 L 1023.998 1115.1152 L 1305.1855 1396.3027 L 1434.6816 1266.8047 L 1153.4961 985.61914 L 1434.6836 704.43164 L 1305.1855 574.93359 L 1023.998 856.12109 L 742.81055 574.93359 z M 441.21289 937.25195 C 266.48674 937.25195 124.31055 1079.4202 124.31055 1254.1465 L 124.31055 1618.9219 L 224.27539 1518.9531 L 224.27539 1425.8145 L 595.50586 1425.8145 L 495.51172 1325.8203 L 224.27539 1325.8203 L 224.27539 1254.1465 C 224.27539 1133.0988 320.15706 1037.2168 441.21289 1037.2168 L 666.19531 1037.2168 L 717.69141 985.72266 L 669.2207 937.25195 L 441.21289 937.25195 z M 1378.6875 937.25195 L 1330.3516 985.58789 L 1381.9805 1037.2168 L 1606.7852 1037.2168 C 1727.8409 1037.2168 1823.7246 1133.0988 1823.7246 1254.1465 L 1823.7246 1325.8203 L 1552.4043 1325.8203 L 1452.4102 1425.8145 L 1823.7246 1425.8145 L 1823.7246 1614.9609 L 1923.6895 1514.9941 L 1923.6895 1254.1465 C 1923.6895 1079.4202 1781.5112 937.25195 1606.7852 937.25195 L 1378.6875 937.25195 z M 990.11914 1325.8203 L 890.12305 1425.8145 L 1157.7852 1425.8145 L 1057.791 1325.8203 L 990.11914 1325.8203 z "
         transform="matrix(0.01033561,0,0,0.01033561,-0.57185015,1031.7077)"
         id="rect3804" />
      <g
         id="g37"
         transform="translate(0,0.14615683)" />
    </g>
  </g>
</svg>
