<?xml version="1.0" encoding="UTF-8" standalone="no"?>
<svg
   xmlns:dc="http://purl.org/dc/elements/1.1/"
   xmlns:cc="http://creativecommons.org/ns#"
   xmlns:rdf="http://www.w3.org/1999/02/22-rdf-syntax-ns#"
   xmlns:svg="http://www.w3.org/2000/svg"
   xmlns="http://www.w3.org/2000/svg"
   xmlns:sodipodi="http://sodipodi.sourceforge.net/DTD/sodipodi-0.dtd"
   xmlns:inkscape="http://www.inkscape.org/namespaces/inkscape"
   version="1.1"
   id="svg3891"
   height="2048"
   width="2048"
   sodipodi:docname="add-participant.svg"
   inkscape:version="0.92.3 (2405546, 2018-03-11)">
  <sodipodi:namedview
     pagecolor="#ffffff"
     bordercolor="#666666"
     borderopacity="1"
     objecttolerance="10"
     gridtolerance="10"
     guidetolerance="10"
     inkscape:pageopacity="0"
     inkscape:pageshadow="2"
     inkscape:window-width="1920"
     inkscape:window-height="1147"
     id="namedview8"
     showgrid="false"
     showguides="false"
     inkscape:zoom="0.32593204"
     inkscape:cx="1400.8123"
     inkscape:cy="1376.9855"
     inkscape:window-x="1672"
     inkscape:window-y="-8"
     inkscape:window-maximized="1"
     inkscape:current-layer="layer1-6" />
  <defs
     id="defs3893" />
  <metadata
     id="metadata3896">
    <rdf:RDF>
      <cc:Work
         rdf:about="">
        <dc:format>image/svg+xml</dc:format>
        <dc:type
           rdf:resource="http://purl.org/dc/dcmitype/StillImage" />
        <dc:title></dc:title>
      </cc:Work>
    </rdf:RDF>
  </metadata>
  <g
     transform="translate(0,995.63783)"
     id="layer1">
    <g
       id="layer1-6"
       transform="matrix(96.752895,0,0,96.752895,55.328158,-100816.34)">
      <path
         d="m 10.012466,1040.9874 c 2.13912,0 3.871115,-1.7327 3.871115,-3.8686 0,-2.1509 -1.731974,-3.8687 -3.871115,-3.8687 -2.1370292,0 -3.8705811,1.7326 -3.8705811,3.8687 0,2.1509 1.7335579,3.8686 3.8705811,3.8686 z m -1.6417031,0.2987 c -2.7324074,0 -4.9562636,2.2106 -4.9562636,4.956 v 4.015 c 0,0 2.5834934,1.0755 6.5973127,1.0755 4.013819,0 6.597312,-1.1053 6.597312,-1.1053 v -4.015 c 0.0018,-2.7185 -2.222618,-4.9561 -4.954495,-4.9561 l -3.2838661,0.03 z"
         style="fill:#000000;fill-opacity:1;fill-rule:nonzero;stroke:none;stroke-width:0.04116804"
         id="path22"
         inkscape:connector-curvature="0"
         sodipodi:nodetypes="ssssscsczccccc" />
      <g
         id="g37"
         transform="translate(0,0.14615683)" />
      <path
         inkscape:connector-curvature="0"
         style="fill:#ffffff;stroke:#ffffff;stroke-width:2.58390201;stroke-miterlimit:4;stroke-dasharray:none;stroke-opacity:1;fill-opacity:1"
         d="m 14.021405,1041.884 v 3.2186 H 10.80273 v 1.9661 h 3.218675 v 3.2186 h 1.966066 v -3.2186 h 3.218654 v -1.9661 h -3.218654 v -3.2186 z"
         id="rect961-8-1" />
      <rect
         style="fill:#ffffff;fill-opacity:1;fill-rule:evenodd;stroke:none;stroke-width:2.06712198;stroke-miterlimit:4;stroke-dasharray:none;stroke-opacity:1"
         id="rect4588"
         width="9.5073595"
         height="11.278777"
         x="13.823727"
         y="1040.3181" />
      <path
         style="fill:#000000;stroke:none;stroke-width:99.99998109;stroke-opacity:1;stroke-miterlimit:4;stroke-dasharray:none"
         d="M 1411.9395 984.58203 L 1411.9395 1295.9941 L 1100.5234 1295.9941 L 1100.5234 1486.2188 L 1411.9395 1486.2188 L 1411.9395 1797.6348 L 1602.1621 1797.6348 L 1602.1621 1486.2188 L 1913.5762 1486.2188 L 1913.5762 1295.9941 L 1602.1621 1295.9941 L 1602.1621 984.58203 L 1411.9395 984.58203 z "
         transform="matrix(0.01033561,0,0,0.01033561,-0.57185015,1031.7077)"
         id="rect961-8" />
    </g>
  </g>
</svg>
